<?xml version="1.0" encoding="UTF-8" standalone="no"?> <svg xmlns="http://www.w3.org/2000/svg" viewBox="0 0 64 64"><title>1</title><g id="Layer_84" data-name="Layer 84"><path d="M55.38,20.76a2,2,0,0,0-2,2V50.13a4.2,4.2,0,0,1-4.2,4.2H13.87a4.2,4.2,0,0,1-4.2-4.2V14.82a4.2,4.2,0,0,1,4.2-4.2H41.24a2,2,0,0,0,0-4H13.87a8.21,8.21,0,0,0-8.2,8.2V50.13a8.21,8.21,0,0,0,8.2,8.2H49.18a8.21,8.21,0,0,0,8.2-8.2V22.76A2,2,0,0,0,55.38,20.76Z"/><path d="M57.75,6.25a2,2,0,0,0-2.83,0L35.07,26.1a2,2,0,1,0,2.83,2.83L57.75,9.08A2,2,0,0,0,57.75,6.25Z"/></g></svg>